<svg xmlns="http://www.w3.org/2000/svg" version="1.1" xmlns:xlink="http://www.w3.org/1999/xlink" xmlns:svgjs="http://svgjs.com/svgjs" width="167" height="191"><svg width="167" height="191" viewBox="0 0 167 191" fill="none" xmlns="http://www.w3.org/2000/svg">
<path d="M0 45.6566L83.04 0L166.08 46.6281V143.77L83.04 190.874L0 143.77V45.6566Z" fill="#38424F"></path>
<path d="M0 45.6566L83.04 0L166.08 46.6281V143.77L83.04 190.874L0 143.77V45.6566Z" fill="#38424F"></path>
<path d="M0 45.6566L83.04 0L166.08 46.6281V143.77L83.04 190.874L0 143.77V45.6566Z" fill="#38424F"></path>
<path d="M0 45.6566L83.04 0L166.08 46.6281V143.77L83.04 190.874L0 143.77V45.6566Z" fill="#38424F"></path>
<path d="M0 45.6566L83.04 0L166.08 46.6281V143.77L83.04 190.874L0 143.77V45.6566Z" fill="#38424F"></path>
<path d="M0 45.6566L83.04 0L166.08 46.6281V143.77L83.04 190.874L0 143.77V45.6566Z" fill="#38424F"></path>
<path d="M0 45.6566L83.04 0L166.08 46.6281V143.77L83.04 190.874L0 143.77V45.6566Z" fill="#38424F"></path>
<path d="M0 45.6566L83.04 0L166.08 46.6281V143.77L83.04 190.874L0 143.77V45.6566Z" fill="#38424F"></path>
<path d="M6 48.7679L83.04 5.96478L160.08 49.6786V140.749L83.04 184.909L6 140.749V48.7679Z" fill="#F15522"></path>
<path d="M6 48.7679L83.04 5.96478L160.08 49.6786V140.749L83.04 184.909L6 140.749V48.7679Z" fill="#F15522"></path>
<path d="M6 48.7679L83.04 5.96478L160.08 49.6786V140.749L83.04 184.909L6 140.749V48.7679Z" fill="#F15522"></path>
<path d="M6 48.7679L83.04 5.96478L160.08 49.6786V140.749L83.04 184.909L6 140.749V48.7679Z" fill="#F15522"></path>
<path d="M6 48.7679L83.04 5.96478L160.08 49.6786V140.749L83.04 184.909L6 140.749V48.7679Z" fill="#F15522"></path>
<path d="M6 48.7679L83.04 5.96478L160.08 49.6786V140.749L83.04 184.909L6 140.749V48.7679Z" fill="#F15522"></path>
<path d="M6 48.7679L83.04 5.96478L160.08 49.6786V140.749L83.04 184.909L6 140.749V48.7679Z" fill="#F15522"></path>
<path d="M6 48.7679L83.04 5.96478L160.08 49.6786V140.749L83.04 184.909L6 140.749V48.7679Z" fill="#F15522"></path>
<path d="M31.5 80.4785C31.5 78.4485 32.6182 76.5836 34.4087 75.6272L80.4087 51.0565C82.028 50.1916 83.972 50.1916 85.5913 51.0565L131.591 75.6272C133.382 76.5836 134.5 78.4485 134.5 80.4785V136.106C134.5 139.143 132.038 141.606 129 141.606H83H37C33.9624 141.606 31.5 139.143 31.5 136.106V80.4785Z" fill="#15B7D6" stroke="black"></path>
<path d="M85.4387 182.576C85.1085 182.766 84.8078 182.847 84.5366 182.817C84.2654 182.787 84.022 182.674 83.8065 182.476C83.5909 182.279 83.397 182.031 83.2247 181.733L81.6022 178.922L80.8591 179.351C80.7956 179.388 80.7338 179.398 80.6737 179.382C80.6136 179.366 80.5652 179.326 80.5285 179.263L80.4515 179.13C80.4149 179.066 80.4046 179.004 80.4207 178.944C80.4368 178.884 80.4766 178.836 80.5401 178.799L81.2832 178.37L80.3592 176.77C80.3225 176.706 80.3122 176.644 80.3283 176.584C80.3444 176.524 80.3842 176.476 80.4477 176.439L80.6097 176.345C80.6732 176.309 80.735 176.298 80.7951 176.315C80.8552 176.331 80.9036 176.37 80.9403 176.434L81.8643 178.034L83.0455 177.352C83.109 177.316 83.1708 177.305 83.2309 177.322C83.291 177.338 83.3394 177.377 83.3761 177.441L83.4531 177.574C83.4898 177.638 83.5 177.7 83.4839 177.76C83.4678 177.82 83.428 177.868 83.3645 177.905L82.1833 178.587L83.7838 181.359C83.9781 181.696 84.1842 181.928 84.4022 182.056C84.6265 182.181 84.8816 182.161 85.1674 181.996L85.6818 181.699C85.7453 181.662 85.8071 181.652 85.8672 181.668C85.9273 181.684 85.9757 181.724 86.0124 181.787L86.0894 181.921C86.126 181.984 86.1363 182.046 86.1202 182.106C86.1041 182.166 86.0643 182.214 86.0008 182.251L85.4387 182.576ZM87.4142 181.435C87.3507 181.472 87.2889 181.482 87.2288 181.466C87.1687 181.45 87.1203 181.41 87.0837 181.346L83.4207 175.002C83.384 174.938 83.3737 174.877 83.3898 174.817C83.4059 174.756 83.4457 174.708 83.5092 174.671L83.6712 174.578C83.7347 174.541 83.7965 174.531 83.8566 174.547C83.9167 174.563 83.9651 174.603 84.0018 174.666L85.3053 176.924C85.3484 176.603 85.4503 176.303 85.611 176.024C85.778 175.741 86.0647 175.482 86.4712 175.248C86.903 174.998 87.3169 174.886 87.7126 174.912C88.1111 174.927 88.4737 175.057 88.8004 175.3C89.1298 175.533 89.4119 175.853 89.6465 176.259L91.2085 178.965C91.2452 179.028 91.2555 179.09 91.2394 179.15C91.2233 179.21 91.1835 179.259 91.12 179.296L90.958 179.389C90.8945 179.426 90.8327 179.436 90.7726 179.42C90.7125 179.404 90.6641 179.364 90.6274 179.3L89.0929 176.643C88.7996 176.135 88.4466 175.809 88.0339 175.666C87.6176 175.517 87.1712 175.58 86.6949 175.855C86.244 176.115 85.9632 176.472 85.8524 176.926C85.7443 177.369 85.8369 177.845 86.1303 178.353L87.6648 181.011C87.7014 181.074 87.7117 181.136 87.6956 181.196C87.6795 181.256 87.6397 181.305 87.5762 181.342L87.4142 181.435ZM93.033 178.191C92.9695 178.228 92.9077 178.238 92.8476 178.222C92.7875 178.206 92.7391 178.166 92.7025 178.102L90.0845 173.568C90.0478 173.504 90.0375 173.443 90.0536 173.383C90.0697 173.322 90.1095 173.274 90.173 173.237L90.335 173.144C90.3985 173.107 90.4603 173.097 90.5204 173.113C90.5805 173.129 90.6289 173.169 90.6656 173.232L93.2836 177.767C93.3202 177.83 93.3305 177.892 93.3144 177.952C93.2983 178.012 93.2585 178.061 93.195 178.098L93.033 178.191ZM89.4797 172.279C89.4162 172.315 89.3544 172.325 89.2943 172.309C89.2342 172.293 89.1858 172.253 89.1492 172.19L88.9402 171.828C88.9035 171.764 88.8932 171.703 88.9093 171.643C88.9218 171.576 88.9597 171.525 89.0232 171.488L89.3852 171.279C89.4488 171.242 89.5124 171.235 89.5762 171.258C89.6426 171.27 89.6942 171.308 89.7308 171.371L89.9398 171.733C89.9765 171.797 89.9836 171.861 89.9612 171.924C89.9451 171.984 89.9053 172.033 89.8417 172.07L89.4797 172.279ZM95.1541 176.966C95.0906 177.003 95.0288 177.013 94.9687 176.997C94.9086 176.981 94.8602 176.941 94.8235 176.878L92.2055 172.343C92.1689 172.28 92.1586 172.218 92.1747 172.158C92.1908 172.098 92.2306 172.049 92.2941 172.013L92.4561 171.919C92.5196 171.883 92.5814 171.872 92.6415 171.888C92.7016 171.905 92.75 171.944 92.7866 172.008L93.0451 172.456C93.0883 172.134 93.1902 171.834 93.3509 171.555C93.5179 171.272 93.8046 171.014 94.2111 170.779C94.6429 170.53 95.0567 170.418 95.4525 170.443C95.851 170.459 96.2136 170.588 96.5403 170.831C96.8697 171.065 97.1518 171.384 97.3864 171.791L98.9484 174.496C98.9851 174.56 98.9954 174.622 98.9793 174.682C98.9632 174.742 98.9233 174.79 98.8598 174.827L98.6979 174.92C98.6344 174.957 98.5726 174.967 98.5125 174.951C98.4524 174.935 98.404 174.895 98.3673 174.832L96.8328 172.174C96.5395 171.666 96.1865 171.34 95.7738 171.198C95.3574 171.049 94.9111 171.111 94.4348 171.386C93.9839 171.647 93.703 172.004 93.5923 172.457C93.4842 172.901 93.5768 173.376 93.8701 173.884L95.4046 176.542C95.4413 176.606 95.4516 176.668 95.4355 176.728C95.4194 176.788 95.3796 176.836 95.3161 176.873L95.1541 176.966ZM100.783 173.717C100.719 173.753 100.657 173.764 100.597 173.748C100.537 173.732 100.489 173.692 100.452 173.628L96.7891 167.284C96.7524 167.22 96.7421 167.158 96.7582 167.098C96.7743 167.038 96.8142 166.99 96.8777 166.953L97.0396 166.86C97.1031 166.823 97.1649 166.813 97.225 166.829C97.2851 166.845 97.3335 166.885 97.3702 166.948L99.3172 170.32L100.512 167.484C100.561 167.363 100.598 167.282 100.626 167.241C100.659 167.196 100.723 167.146 100.819 167.091L101 166.987C101.057 166.954 101.112 166.947 101.166 166.967C101.222 166.977 101.267 167.01 101.3 167.067C101.315 167.093 101.324 167.13 101.327 167.179C101.332 167.218 101.319 167.268 101.286 167.329L99.9322 170.55L103.944 171.383C104.071 171.412 104.149 171.451 104.178 171.502C104.211 171.559 104.22 171.618 104.204 171.678C104.19 171.728 104.155 171.77 104.098 171.803L103.945 171.891C103.85 171.946 103.777 171.98 103.725 171.993C103.676 171.996 103.585 171.985 103.452 171.96L99.8342 171.216L101.033 173.293C101.07 173.356 101.08 173.418 101.064 173.478C101.048 173.538 101.008 173.587 100.945 173.623L100.783 173.717ZM105.415 171.042C105.352 171.079 105.29 171.089 105.23 171.073C105.17 171.057 105.121 171.017 105.085 170.954L102.472 166.429C102.436 166.365 102.425 166.303 102.441 166.243C102.454 166.177 102.492 166.125 102.555 166.088L102.708 166C102.771 165.964 102.835 165.957 102.899 165.979C102.965 165.992 103.017 166.03 103.053 166.093L103.306 166.531C103.292 166.243 103.362 165.982 103.516 165.75C103.669 165.517 103.905 165.309 104.222 165.126L104.575 164.922C104.638 164.886 104.7 164.875 104.76 164.892C104.82 164.908 104.869 164.947 104.905 165.011L104.982 165.144C105.019 165.208 105.029 165.27 105.013 165.33C104.997 165.39 104.957 165.438 104.894 165.475L104.484 165.711C104.103 165.931 103.866 166.217 103.772 166.567C103.678 166.918 103.741 167.284 103.961 167.665L105.666 170.618C105.703 170.682 105.71 170.745 105.687 170.809C105.671 170.869 105.631 170.917 105.568 170.954L105.415 171.042ZM108.139 169.469C108.076 169.506 108.014 169.516 107.954 169.5C107.894 169.484 107.845 169.444 107.809 169.381L107.545 168.924C107.508 168.86 107.498 168.798 107.514 168.738C107.526 168.672 107.564 168.62 107.628 168.583L108.085 168.319C108.149 168.283 108.212 168.276 108.276 168.298C108.342 168.311 108.394 168.349 108.431 168.412L108.695 168.869C108.731 168.933 108.738 168.996 108.716 169.06C108.7 169.12 108.66 169.169 108.597 169.205L108.139 169.469ZM110.72 167.98C110.656 168.016 110.594 168.027 110.534 168.01C110.474 167.994 110.426 167.955 110.389 167.891L107.969 163.699L107.121 164.189C107.058 164.226 106.996 164.236 106.936 164.22C106.876 164.204 106.827 164.164 106.791 164.1L106.714 163.967C106.677 163.904 106.667 163.842 106.683 163.782C106.699 163.722 106.739 163.673 106.802 163.636L107.65 163.147L107.337 162.604C107.172 162.318 107.059 162.036 107 161.757C106.947 161.474 106.982 161.204 107.104 160.947C107.233 160.687 107.491 160.444 107.879 160.221L108.374 159.935C108.437 159.898 108.499 159.888 108.559 159.904C108.619 159.92 108.668 159.96 108.705 160.023L108.782 160.157C108.818 160.22 108.828 160.282 108.812 160.342C108.796 160.402 108.756 160.451 108.693 160.487L108.198 160.773C107.861 160.968 107.686 161.192 107.671 161.445C107.66 161.689 107.751 161.979 107.945 162.316L108.231 162.811L109.489 162.085C109.552 162.049 109.614 162.039 109.674 162.055C109.734 162.071 109.783 162.111 109.819 162.174L109.896 162.307C109.933 162.371 109.943 162.433 109.927 162.493C109.911 162.553 109.871 162.601 109.808 162.638L108.55 163.364L110.97 167.556C111.007 167.619 111.017 167.681 111.001 167.741C110.985 167.801 110.945 167.849 110.882 167.886L110.72 167.98ZM113.686 166.267C113.622 166.304 113.56 166.314 113.5 166.298C113.44 166.282 113.392 166.242 113.355 166.179L110.743 161.654C110.706 161.59 110.696 161.528 110.712 161.468C110.724 161.402 110.762 161.35 110.826 161.314L110.978 161.226C111.042 161.189 111.105 161.182 111.169 161.204C111.236 161.217 111.287 161.255 111.324 161.318L111.577 161.756C111.563 161.468 111.633 161.208 111.786 160.975C111.94 160.742 112.175 160.534 112.493 160.351L112.845 160.148C112.909 160.111 112.971 160.101 113.031 160.117C113.091 160.133 113.139 160.173 113.176 160.236L113.253 160.369C113.29 160.433 113.3 160.495 113.284 160.555C113.268 160.615 113.228 160.663 113.164 160.7L112.755 160.937C112.374 161.157 112.136 161.442 112.042 161.792C111.948 162.143 112.011 162.509 112.231 162.89L113.936 165.843C113.973 165.907 113.98 165.97 113.958 166.034C113.941 166.094 113.902 166.143 113.838 166.179L113.686 166.267Z" fill="white"></path>
<rect x="44" y="47.1056" width="79" height="78" rx="2" fill="white"></rect>
<g filter="url(#filter0_di_34_35)">
<path d="M31 83.3591C31 81.2855 33.0535 79.8372 35.0068 80.5331L81.9932 97.2732C82.6443 97.5052 83.3557 97.5052 84.0068 97.2732L130.993 80.5331C132.947 79.8372 135 81.2855 135 83.3591V140.106C135 141.762 133.657 143.106 132 143.106H83H34C32.3431 143.106 31 141.762 31 140.106V83.3591Z" fill="#7176B8"></path>
<path d="M31.5 83.3591C31.5 81.6311 33.2112 80.4242 34.839 81.0041L81.8254 97.7442C82.5851 98.0149 83.4149 98.0149 84.1746 97.7442L131.161 81.0041C132.789 80.4242 134.5 81.6311 134.5 83.3591V140.106C134.5 141.486 133.381 142.606 132 142.606H83H34C32.6193 142.606 31.5 141.486 31.5 140.106V83.3591Z" stroke="black"></path>
</g>
<path d="M36.75 115.074C36.8229 114.856 36.9375 114.668 37.0938 114.512C37.2604 114.356 37.4375 114.225 37.625 114.121C37.8229 114.007 38.026 113.913 38.2344 113.84C38.4427 113.767 38.6406 113.705 38.8281 113.652C39.2448 113.475 39.6875 113.309 40.1562 113.152C40.6354 112.986 41.1198 112.84 41.6094 112.715C42.1094 112.59 42.6198 112.512 43.1406 112.481C43.6615 112.439 44.2083 112.501 44.7812 112.668C44.8125 112.772 44.8594 112.871 44.9219 112.965C44.9844 113.059 45.0469 113.152 45.1094 113.246C45.1823 113.34 45.2448 113.434 45.2969 113.527C45.349 113.611 45.3802 113.699 45.3906 113.793C45.4948 113.887 45.5781 113.991 45.6406 114.106C45.7031 114.21 45.7135 114.35 45.6719 114.527C45.5677 114.611 45.4635 114.689 45.3594 114.762C45.2656 114.824 45.1615 114.882 45.0469 114.934C44.6615 114.84 44.2708 114.809 43.875 114.84C43.4792 114.871 43.125 114.897 42.8125 114.918C42.7188 114.824 42.6042 114.777 42.4688 114.777C42.3438 114.777 42.2083 114.798 42.0625 114.84C41.9271 114.882 41.7865 114.923 41.6406 114.965C41.5052 115.007 41.375 115.017 41.25 114.996C41.1458 115.08 41.0156 115.137 40.8594 115.168C40.7135 115.189 40.5521 115.21 40.375 115.231C40.3646 115.283 40.375 115.319 40.4062 115.34C40.4375 115.35 40.4427 115.382 40.4219 115.434C40.4844 115.507 40.5625 115.559 40.6562 115.59C40.7604 115.621 40.8646 115.652 40.9688 115.684C41.0833 115.715 41.1823 115.757 41.2656 115.809C41.349 115.85 41.4062 115.923 41.4375 116.027C41.5938 116.027 41.7292 116.064 41.8438 116.137C41.9583 116.21 42.0521 116.298 42.125 116.402C42.1979 116.507 42.25 116.621 42.2812 116.746C42.3229 116.861 42.3438 116.965 42.3438 117.059C42.375 117.142 42.4115 117.179 42.4531 117.168C42.4948 117.158 42.5417 117.179 42.5938 117.231C42.625 117.366 42.7031 117.507 42.8281 117.652C42.9531 117.788 43.0521 117.939 43.125 118.106C43.1458 118.366 43.1615 118.6 43.1719 118.809C43.1823 119.007 43.1458 119.21 43.0625 119.418C42.9062 119.804 42.6875 120.147 42.4062 120.449C42.1354 120.751 41.8229 121.022 41.4688 121.262C41.125 121.491 40.7552 121.689 40.3594 121.856C39.9635 122.022 39.5781 122.163 39.2031 122.277C39.1615 122.267 39.1198 122.267 39.0781 122.277C39.0365 122.288 39.026 122.262 39.0469 122.199C38.9635 122.272 38.8698 122.319 38.7656 122.34C38.6719 122.361 38.5677 122.366 38.4531 122.356C38.3385 122.356 38.2188 122.35 38.0938 122.34C37.9792 122.33 37.8698 122.335 37.7656 122.356C37.6927 122.283 37.625 122.21 37.5625 122.137C37.5104 122.074 37.4688 121.991 37.4375 121.887C37.3854 121.887 37.3594 121.861 37.3594 121.809C37.3698 121.757 37.3542 121.731 37.3125 121.731C37.375 121.626 37.401 121.569 37.3906 121.559C37.3906 121.538 37.375 121.522 37.3438 121.512C37.3229 121.501 37.3021 121.491 37.2812 121.481C37.2604 121.46 37.2552 121.434 37.2656 121.402C37.3073 121.319 37.3229 121.225 37.3125 121.121C37.3021 121.007 37.2917 120.892 37.2812 120.777C37.2708 120.663 37.276 120.554 37.2969 120.449C37.3281 120.345 37.4062 120.262 37.5312 120.199C37.8854 120.241 38.2188 120.231 38.5312 120.168C38.8542 120.095 39.1562 119.996 39.4375 119.871C39.7188 119.746 39.9844 119.611 40.2344 119.465C40.4948 119.319 40.75 119.189 41 119.074C41.0312 118.981 41.0729 118.902 41.125 118.84C41.1875 118.777 41.25 118.72 41.3125 118.668C41.375 118.616 41.4323 118.559 41.4844 118.496C41.5365 118.434 41.5729 118.356 41.5938 118.262C41.6042 118.189 41.5833 118.147 41.5312 118.137C41.4896 118.116 41.4688 118.074 41.4688 118.012L41.2969 117.965C41.099 117.85 40.875 117.757 40.625 117.684C40.375 117.6 40.1615 117.512 39.9844 117.418C39.8698 117.481 39.7604 117.496 39.6562 117.465C39.5625 117.434 39.4375 117.402 39.2812 117.371C38.9271 117.35 38.5833 117.314 38.25 117.262C37.9271 117.21 37.6146 117.116 37.3125 116.981C37.2917 116.929 37.2656 116.882 37.2344 116.84C37.2031 116.798 37.1458 116.788 37.0625 116.809C37 116.725 36.9375 116.647 36.875 116.574C36.8125 116.491 36.7552 116.402 36.7031 116.309C36.724 116.184 36.7396 116.08 36.75 115.996C36.7604 115.902 36.7292 115.814 36.6562 115.731C36.6979 115.595 36.7292 115.486 36.75 115.402C36.7708 115.319 36.7708 115.21 36.75 115.074ZM47.2344 121.012C47.2865 121.324 47.2656 121.569 47.1719 121.746C47.0885 121.923 46.9635 122.054 46.7969 122.137C46.6406 122.231 46.4583 122.283 46.25 122.293C46.0417 122.304 45.8438 122.293 45.6562 122.262C45.5521 122.116 45.4583 121.934 45.375 121.715C45.2917 121.496 45.2135 121.272 45.1406 121.043C45.0677 120.804 45 120.569 44.9375 120.34C44.8854 120.111 44.8385 119.908 44.7969 119.731C44.849 119.606 44.8802 119.465 44.8906 119.309C44.9115 119.142 44.9219 118.975 44.9219 118.809C44.9323 118.642 44.9375 118.475 44.9375 118.309C44.9479 118.132 44.9635 117.965 44.9844 117.809C45.0573 117.371 45.1615 116.955 45.2969 116.559C45.4427 116.163 45.5573 115.751 45.6406 115.324C45.6615 115.231 45.651 115.142 45.6094 115.059C45.5781 114.975 45.5729 114.897 45.5938 114.824C45.6042 114.783 45.6354 114.757 45.6875 114.746C45.7396 114.725 45.7708 114.689 45.7812 114.637C45.8125 114.522 45.8177 114.429 45.7969 114.356C45.7865 114.283 45.8073 114.194 45.8594 114.09C45.9115 114.007 45.974 113.887 46.0469 113.731C46.1302 113.564 46.1615 113.392 46.1406 113.215C46.2344 113.152 46.3229 113.08 46.4062 112.996C46.4896 112.913 46.5729 112.84 46.6562 112.777C46.75 112.705 46.849 112.642 46.9531 112.59C47.0677 112.538 47.2031 112.512 47.3594 112.512C47.4427 112.616 47.4948 112.731 47.5156 112.856C47.5469 112.981 47.5729 113.106 47.5938 113.231C47.625 113.356 47.6667 113.475 47.7188 113.59C47.7708 113.694 47.8594 113.777 47.9844 113.84C47.9844 113.923 47.9844 114.027 47.9844 114.152C47.9844 114.277 47.9896 114.402 48 114.527C48.0104 114.642 48.0312 114.751 48.0625 114.856C48.1042 114.949 48.1667 115.012 48.25 115.043C48.0625 115.543 47.8854 116.038 47.7188 116.527C47.5625 117.017 47.4323 117.512 47.3281 118.012C47.224 118.501 47.1562 118.996 47.125 119.496C47.1042 119.996 47.1406 120.501 47.2344 121.012ZM60.125 119.293C59.875 119.741 59.5469 120.09 59.1406 120.34C58.7344 120.58 58.2865 120.783 57.7969 120.949C57.3073 121.106 56.7917 121.246 56.25 121.371C55.7188 121.496 55.2031 121.658 54.7031 121.856C54.5573 121.856 54.4271 121.861 54.3125 121.871C54.2083 121.882 54.1042 121.897 54 121.918C53.9062 121.929 53.8125 121.944 53.7188 121.965C53.625 121.975 53.5208 121.986 53.4062 121.996C53.3646 121.986 53.3385 121.996 53.3281 122.027C53.3177 122.048 53.3021 122.069 53.2812 122.09C53.1042 122.121 52.9427 122.137 52.7969 122.137C52.6615 122.137 52.5469 122.137 52.4531 122.137C52.3281 122.137 52.1979 122.152 52.0625 122.184C51.9375 122.225 51.8229 122.241 51.7188 122.231C50.9375 122.189 50.3229 121.913 49.875 121.402C49.4375 120.882 49.1927 120.163 49.1406 119.246C49.151 119.194 49.1406 119.163 49.1094 119.152C49.0885 119.142 49.0677 119.126 49.0469 119.106C49.0469 119.001 49.0573 118.913 49.0781 118.84C49.1094 118.767 49.1146 118.673 49.0938 118.559C49.3646 117.986 49.6719 117.455 50.0156 116.965C50.3594 116.465 50.7708 116.027 51.25 115.652C51.3229 115.59 51.3854 115.527 51.4375 115.465C51.4896 115.402 51.5365 115.34 51.5781 115.277C51.6302 115.215 51.6875 115.163 51.75 115.121C51.8125 115.069 51.8906 115.033 51.9844 115.012C52.2031 114.762 52.4635 114.533 52.7656 114.324C53.0677 114.116 53.3854 113.918 53.7188 113.731C54.0521 113.533 54.3802 113.34 54.7031 113.152C55.0365 112.955 55.3385 112.736 55.6094 112.496C55.724 112.548 55.8073 112.564 55.8594 112.543C55.9115 112.522 55.9688 112.522 56.0312 112.543C56.1042 112.699 56.2031 112.809 56.3281 112.871C56.4635 112.934 56.5938 113.001 56.7188 113.074C56.8542 113.137 56.9792 113.215 57.0938 113.309C57.2083 113.402 57.2969 113.527 57.3594 113.684C57.2969 113.684 57.2656 113.71 57.2656 113.762C57.276 113.804 57.2917 113.85 57.3125 113.902C57.3333 113.944 57.3385 113.991 57.3281 114.043C57.3281 114.085 57.2917 114.106 57.2188 114.106C57.2292 114.158 57.2604 114.189 57.3125 114.199C57.375 114.199 57.4062 114.225 57.4062 114.277C57.4062 114.33 57.3906 114.371 57.3594 114.402C57.3385 114.434 57.3385 114.486 57.3594 114.559C57.151 114.694 56.9167 114.824 56.6562 114.949C56.4062 115.074 56.1406 115.21 55.8594 115.356C55.5885 115.491 55.3021 115.642 55 115.809C54.7083 115.965 54.4219 116.147 54.1406 116.356C53.8594 116.564 53.5729 116.798 53.2812 117.059C52.9896 117.309 52.7083 117.574 52.4375 117.856C52.1667 118.137 51.9115 118.429 51.6719 118.731C51.4323 119.022 51.2292 119.314 51.0625 119.606C51.0833 119.658 51.1042 119.699 51.125 119.731C51.1562 119.751 51.1823 119.788 51.2031 119.84C51.5365 119.861 51.8438 119.861 52.125 119.84C52.4167 119.809 52.7083 119.824 53 119.887C53.0312 119.866 53.0521 119.835 53.0625 119.793C53.0729 119.751 53.099 119.72 53.1406 119.699C53.7344 119.637 54.2865 119.543 54.7969 119.418C55.3073 119.283 55.8281 119.142 56.3594 118.996C56.276 118.965 56.1979 118.939 56.125 118.918C56.0625 118.887 56 118.861 55.9375 118.84C55.8854 118.788 55.8854 118.746 55.9375 118.715C56 118.673 56.0521 118.632 56.0938 118.59C55.9479 118.507 55.8281 118.402 55.7344 118.277C55.651 118.152 55.599 117.986 55.5781 117.777C55.6406 117.725 55.6719 117.663 55.6719 117.59C55.6719 117.517 55.6406 117.46 55.5781 117.418C55.5365 117.408 55.5104 117.408 55.5 117.418C55.4896 117.429 55.4792 117.444 55.4688 117.465C55.4688 117.486 55.4635 117.507 55.4531 117.527C55.4427 117.538 55.4167 117.533 55.375 117.512C55.3854 117.418 55.4062 117.34 55.4375 117.277C55.4792 117.215 55.5104 117.142 55.5312 117.059L56.6094 116.34C56.724 116.423 56.8646 116.517 57.0312 116.621C57.1979 116.715 57.3698 116.814 57.5469 116.918C57.7344 117.012 57.9219 117.111 58.1094 117.215C58.3073 117.309 58.4896 117.402 58.6562 117.496C58.8021 117.559 58.9323 117.642 59.0469 117.746C59.1615 117.85 59.2708 117.96 59.375 118.074C59.4792 118.179 59.5833 118.283 59.6875 118.387C59.8021 118.491 59.9323 118.58 60.0781 118.652C60.0573 118.788 60.0625 118.897 60.0938 118.981C60.125 119.064 60.1354 119.168 60.125 119.293ZM62.6875 119.262C62.5938 119.283 62.526 119.34 62.4844 119.434C62.4427 119.517 62.401 119.606 62.3594 119.699C62.3281 119.793 62.2917 119.882 62.25 119.965C62.2188 120.038 62.1667 120.074 62.0938 120.074C62.0833 120.158 62.0521 120.231 62 120.293C61.9583 120.356 61.9167 120.423 61.875 120.496C61.8333 120.559 61.8021 120.632 61.7812 120.715C61.7604 120.788 61.7708 120.876 61.8125 120.981C61.7292 121.043 61.6771 121.132 61.6562 121.246C61.6354 121.361 61.6094 121.47 61.5781 121.574C61.5573 121.679 61.5156 121.767 61.4531 121.84C61.3906 121.913 61.276 121.944 61.1094 121.934C61.0781 121.975 61.0729 122.001 61.0938 122.012C61.1146 122.022 61.1302 122.059 61.1406 122.121C61.026 122.1 60.9375 122.106 60.875 122.137C60.8229 122.179 60.7552 122.205 60.6719 122.215C60.474 122.152 60.3073 122.043 60.1719 121.887C60.0469 121.731 59.9323 121.559 59.8281 121.371C59.7344 121.173 59.6458 120.975 59.5625 120.777C59.4896 120.58 59.4167 120.408 59.3438 120.262C59.375 120.147 59.3802 120.038 59.3594 119.934C59.3385 119.819 59.3021 119.725 59.25 119.652C59.7604 118.569 60.3177 117.413 60.9219 116.184C61.526 114.955 62.099 113.741 62.6406 112.543C62.8802 112.637 63.1146 112.746 63.3438 112.871C63.5833 112.986 63.7969 113.121 63.9844 113.277C64.1823 113.434 64.349 113.616 64.4844 113.824C64.6198 114.022 64.7083 114.246 64.75 114.496C64.7292 114.559 64.7031 114.585 64.6719 114.574C64.651 114.554 64.6302 114.559 64.6094 114.59C64.651 114.642 64.6719 114.679 64.6719 114.699C64.6823 114.72 64.6823 114.741 64.6719 114.762C64.6719 114.783 64.6719 114.814 64.6719 114.856C64.6719 114.887 64.6875 114.934 64.7188 114.996C64.6771 114.986 64.6458 114.991 64.625 115.012C64.6146 115.033 64.5833 115.033 64.5312 115.012C64.5729 115.126 64.5833 115.22 64.5625 115.293C64.5521 115.366 64.5312 115.434 64.5 115.496C64.4688 115.548 64.4427 115.611 64.4219 115.684C64.401 115.746 64.4062 115.83 64.4375 115.934C64.4062 115.934 64.3802 115.944 64.3594 115.965C64.349 115.975 64.3385 115.991 64.3281 116.012C64.3177 116.022 64.3021 116.038 64.2812 116.059C64.2708 116.069 64.25 116.069 64.2188 116.059C64.25 116.288 64.2604 116.517 64.25 116.746C64.2396 116.975 64.2292 117.21 64.2188 117.449C64.2188 117.679 64.224 117.923 64.2344 118.184C64.2448 118.434 64.2812 118.694 64.3438 118.965C64.7188 118.746 65.0156 118.465 65.2344 118.121C65.4635 117.777 65.6458 117.392 65.7812 116.965C65.9271 116.538 66.0365 116.08 66.1094 115.59C66.1823 115.1 66.2604 114.6 66.3438 114.09C66.4375 113.996 66.5104 113.882 66.5625 113.746C66.6146 113.611 66.6615 113.47 66.7031 113.324C66.7448 113.168 66.7865 113.017 66.8281 112.871C66.8698 112.715 66.9219 112.574 66.9844 112.449C67.1406 112.47 67.2708 112.522 67.375 112.606C67.4896 112.679 67.5938 112.762 67.6875 112.856C67.7812 112.939 67.8802 113.022 67.9844 113.106C68.0885 113.179 68.2188 113.225 68.375 113.246C68.5 113.423 68.6146 113.595 68.7188 113.762C68.8229 113.929 68.8906 114.106 68.9219 114.293C68.8698 114.376 68.8281 114.47 68.7969 114.574C68.776 114.679 68.75 114.783 68.7188 114.887C68.6875 114.991 68.6458 115.09 68.5938 115.184C68.5417 115.267 68.4688 115.34 68.375 115.402C68.3438 115.673 68.3021 115.923 68.25 116.152C68.2083 116.371 68.1615 116.59 68.1094 116.809C68.0677 117.027 68.0312 117.257 68 117.496C67.9688 117.725 67.9583 117.981 67.9688 118.262C67.8854 118.501 67.7969 118.757 67.7031 119.027C67.6094 119.298 67.5365 119.543 67.4844 119.762C67.3177 119.897 67.1875 120.059 67.0938 120.246C67 120.434 66.901 120.621 66.7969 120.809C66.7552 120.85 66.7292 120.861 66.7188 120.84C66.7083 120.819 66.6719 120.804 66.6094 120.793C66.6198 120.835 66.6198 120.866 66.6094 120.887C66.599 120.908 66.5833 120.929 66.5625 120.949C66.5521 120.96 66.5417 120.981 66.5312 121.012C66.5312 121.043 66.5417 121.085 66.5625 121.137C66.4167 121.199 66.2865 121.288 66.1719 121.402C66.0573 121.517 65.9323 121.621 65.7969 121.715C65.6719 121.809 65.5156 121.871 65.3281 121.902C65.151 121.934 64.9167 121.897 64.625 121.793C64.1979 121.481 63.8177 121.121 63.4844 120.715C63.1615 120.309 62.8958 119.824 62.6875 119.262ZM76.7812 120.793C76.7188 120.97 76.625 121.152 76.5 121.34C76.3854 121.517 76.2448 121.679 76.0781 121.824C75.9219 121.96 75.7448 122.074 75.5469 122.168C75.349 122.262 75.1406 122.314 74.9219 122.324C74.7865 122.293 74.6927 122.257 74.6406 122.215C74.599 122.184 74.5521 122.152 74.5 122.121C74.4688 122.1 74.4375 122.085 74.4062 122.074C74.3854 122.054 74.3646 122.038 74.3438 122.027L74.1562 121.949L74.2188 121.746C74.2396 121.663 74.2344 121.6 74.2031 121.559C74.1719 121.507 74.1094 121.439 74.0156 121.356C73.9844 121.324 73.9531 121.293 73.9219 121.262C73.8906 121.231 73.8646 121.199 73.8438 121.168L73.5781 120.871L74 120.762C74.2604 120.689 74.4323 120.595 74.5156 120.481C74.6094 120.366 74.6458 120.173 74.625 119.902C74.4167 119.861 74.2396 119.856 74.0938 119.887C73.9583 119.918 73.8177 119.955 73.6719 119.996C73.4844 120.048 73.2917 120.095 73.0938 120.137C72.9062 120.168 72.6979 120.184 72.4688 120.184C72.3854 120.184 72.3073 120.184 72.2344 120.184C72.1615 120.173 72.0833 120.163 72 120.152L71.8438 120.121C71.8229 120.007 71.8021 119.944 71.7812 119.934C71.7604 119.913 71.7396 119.892 71.7188 119.871C71.6667 119.819 71.6094 119.751 71.5469 119.668C71.4948 119.574 71.4844 119.46 71.5156 119.324C71.4635 119.231 71.4323 119.137 71.4219 119.043C71.3594 119.168 71.3125 119.298 71.2812 119.434L71.2188 119.59L71.0625 119.621C71.0417 119.632 71.026 119.658 71.0156 119.699C71.0052 119.731 71 119.757 71 119.777L70.9219 120.043C70.901 120.064 70.8802 120.085 70.8594 120.106C70.8385 120.116 70.8177 120.132 70.7969 120.152C70.776 120.246 70.75 120.34 70.7188 120.434C70.6875 120.527 70.6562 120.616 70.625 120.699C70.5729 120.835 70.526 120.97 70.4844 121.106C70.4531 121.231 70.4427 121.356 70.4531 121.481L70.3906 121.652C70.3385 121.715 70.2812 121.767 70.2188 121.809C70.1562 121.84 70.0938 121.871 70.0312 121.902C70.0104 121.923 69.9792 121.944 69.9375 121.965C69.9062 121.975 69.8802 121.986 69.8594 121.996L69.8125 122.168L69.625 122.199C69.5104 122.22 69.4271 122.236 69.375 122.246C69.3333 122.257 69.2812 122.262 69.2188 122.262L69.0625 122.246C68.9479 122.152 68.8594 122.08 68.7969 122.027C68.7344 121.965 68.6615 121.908 68.5781 121.856C68.4844 121.731 68.4323 121.637 68.4219 121.574C68.4115 121.512 68.401 121.455 68.3906 121.402C68.3698 121.34 68.3594 121.288 68.3594 121.246C68.349 121.205 68.3333 121.173 68.3125 121.152L68.1094 120.965L68.2812 120.824L68.2969 120.559C68.5052 120.027 68.724 119.517 68.9531 119.027C69.1927 118.538 69.4375 118.038 69.6875 117.527C69.7708 117.361 69.849 117.194 69.9219 117.027C70.0052 116.861 70.0885 116.694 70.1719 116.527C70.1615 116.496 70.1562 116.46 70.1562 116.418C70.1562 116.376 70.1667 116.33 70.1875 116.277C70.3021 116.1 70.3958 115.944 70.4688 115.809C70.5417 115.663 70.6146 115.517 70.6875 115.371C70.7708 115.194 70.8542 115.022 70.9375 114.856C71.0312 114.689 71.1458 114.517 71.2812 114.34L71.5312 114.231C71.5625 114.22 71.599 114.21 71.6406 114.199C71.6823 114.179 71.7292 114.168 71.7812 114.168L72.0156 114.199C72.3073 114.064 72.5625 113.876 72.7812 113.637C73 113.387 73.224 113.09 73.4531 112.746L73.6094 112.527L73.8125 112.652C73.8646 112.684 73.9375 112.715 74.0312 112.746C74.125 112.767 74.224 112.793 74.3281 112.824C74.5156 112.866 74.6927 112.913 74.8594 112.965C75.026 113.017 75.1615 113.095 75.2656 113.199C75.3281 113.366 75.3646 113.491 75.375 113.574C75.3854 113.658 75.401 113.741 75.4219 113.824C75.4531 114.001 75.4792 114.179 75.5 114.356C75.5312 114.533 75.5521 114.731 75.5625 114.949C75.6146 115.126 75.6562 115.304 75.6875 115.481C75.7292 115.647 75.7656 115.819 75.7969 115.996C75.849 116.246 75.901 116.491 75.9531 116.731C76.0052 116.96 76.0729 117.179 76.1562 117.387C76.2396 117.387 76.2917 117.392 76.3125 117.402C76.3646 117.382 76.4167 117.366 76.4688 117.356C76.5312 117.345 76.599 117.335 76.6719 117.324L76.8438 117.309L76.9062 117.465C76.9167 117.517 76.9688 117.569 77.0625 117.621C77.1979 117.632 77.2969 117.663 77.3594 117.715C77.4219 117.757 77.4792 117.804 77.5312 117.856C77.5729 117.897 77.6146 117.929 77.6562 117.949L77.8906 118.043L77.7656 118.277C77.6615 118.465 77.5104 118.647 77.3125 118.824C77.125 118.991 76.9115 119.132 76.6719 119.246C76.6823 119.309 76.6875 119.371 76.6875 119.434C76.6979 119.486 76.7135 119.543 76.7344 119.606C76.7656 119.783 76.7917 119.965 76.8125 120.152C76.8333 120.34 76.8333 120.533 76.8125 120.731L76.7812 120.793ZM72.2656 118.09C72.5781 118.069 72.8594 118.048 73.1094 118.027C73.3698 117.996 73.6562 117.949 73.9688 117.887C73.8958 117.574 73.8177 117.251 73.7344 116.918C73.651 116.574 73.5625 116.236 73.4688 115.902L73.375 116.059C73.1667 116.277 72.9635 116.522 72.7656 116.793C72.5781 117.064 72.4167 117.319 72.2812 117.559C72.2188 117.652 72.1562 117.746 72.0938 117.84C72.0312 117.934 71.974 118.027 71.9219 118.121C71.9844 118.111 72.0417 118.106 72.0938 118.106C72.1562 118.106 72.2135 118.1 72.2656 118.09ZM85.9062 114.59C85.6458 114.59 85.3646 114.611 85.0625 114.652C84.7604 114.684 84.4635 114.72 84.1719 114.762C83.9635 114.793 83.7604 114.819 83.5625 114.84C83.375 114.861 83.2031 114.876 83.0469 114.887C82.974 115.116 82.901 115.319 82.8281 115.496C82.7552 115.673 82.6771 115.845 82.5938 116.012C82.5104 116.189 82.4323 116.371 82.3594 116.559C82.2969 116.736 82.2344 116.929 82.1719 117.137C82.0677 117.304 81.9792 117.46 81.9062 117.606C81.8438 117.741 81.7917 117.897 81.75 118.074C81.625 118.231 81.5312 118.397 81.4688 118.574C81.4062 118.741 81.3594 118.887 81.3281 119.012L81.2656 119.199C81.2031 119.262 81.1667 119.314 81.1562 119.356C81.1458 119.387 81.1198 119.418 81.0781 119.449C81.0677 119.564 81.0312 119.679 80.9688 119.793C80.9479 119.845 80.9323 119.897 80.9219 119.949C80.9115 119.991 80.9062 120.022 80.9062 120.043C80.9062 120.147 80.8802 120.215 80.8281 120.246C80.8385 120.298 80.8385 120.356 80.8281 120.418C80.8177 120.47 80.8073 120.522 80.7969 120.574C80.7656 120.699 80.7552 120.798 80.7656 120.871C80.7969 120.913 80.8229 120.949 80.8438 120.981C80.875 121.012 80.8958 121.054 80.9062 121.106C80.9688 121.147 81.0156 121.173 81.0469 121.184C81.0885 121.215 81.151 121.251 81.2344 121.293L81.375 121.449C81.4271 121.751 81.3802 121.991 81.2344 122.168C81.0781 122.366 80.8125 122.465 80.4375 122.465H80.25C80.1979 122.413 80.1667 122.371 80.1562 122.34C80.0729 122.309 80.0052 122.283 79.9531 122.262C79.901 122.241 79.8542 122.199 79.8125 122.137C79.6771 122.074 79.5677 122.022 79.4844 121.981L79.3438 121.902C79.3438 121.788 79.3438 121.725 79.3438 121.715C79.2708 121.621 79.2135 121.517 79.1719 121.402C79.1406 121.288 79.1146 121.173 79.0938 121.059C79.0729 120.965 79.0469 120.876 79.0156 120.793C78.9948 120.71 78.9635 120.637 78.9219 120.574C78.901 119.97 78.9583 119.46 79.0938 119.043C79.2292 118.626 79.3698 118.225 79.5156 117.84C79.599 117.632 79.6823 117.423 79.7656 117.215C79.849 116.996 79.9219 116.772 79.9844 116.543L80.125 116.387C80.1979 116.22 80.2552 116.085 80.2969 115.981C80.349 115.866 80.401 115.751 80.4531 115.637C80.4844 115.564 80.5104 115.496 80.5312 115.434C80.5625 115.361 80.5885 115.298 80.6094 115.246C80.5469 115.246 80.4896 115.251 80.4375 115.262C80.3854 115.262 80.3333 115.267 80.2812 115.277C80.2188 115.288 80.1615 115.298 80.1094 115.309C80.0573 115.309 80.0052 115.309 79.9531 115.309C79.8802 115.309 79.8281 115.304 79.7969 115.293C79.6823 115.345 79.5573 115.371 79.4219 115.371H79.2656C79.2344 115.371 79.2031 115.371 79.1719 115.371C79.151 115.361 79.1302 115.356 79.1094 115.356C79.0052 115.356 78.9219 115.371 78.8594 115.402C78.7344 115.402 78.6146 115.402 78.5 115.402H78.3438C78.3229 115.402 78.2969 115.408 78.2656 115.418C78.2344 115.418 78.2083 115.418 78.1875 115.418C78.1146 115.418 78.0365 115.413 77.9531 115.402C77.8698 115.382 77.7812 115.345 77.6875 115.293C77.5625 115.126 77.4792 115.038 77.4375 115.027L77.2969 114.84C77.2865 114.777 77.2708 114.72 77.25 114.668C77.2292 114.606 77.2083 114.538 77.1875 114.465C77.1458 114.361 77.1042 114.251 77.0625 114.137C77.0312 114.012 77.0156 113.866 77.0156 113.699C77.026 113.616 77.0469 113.554 77.0781 113.512C77.1094 113.47 77.1354 113.434 77.1562 113.402L77.2031 113.168L77.4062 113.184H77.8438C78.1771 113.184 78.5156 113.173 78.8594 113.152C79.2031 113.121 79.5573 113.09 79.9219 113.059C80.1302 113.038 80.3385 113.017 80.5469 112.996C80.7656 112.975 80.9896 112.955 81.2188 112.934C81.2604 112.84 81.3021 112.751 81.3438 112.668L81.5 112.59C81.6875 112.58 81.8177 112.606 81.8906 112.668C81.974 112.72 82.0417 112.772 82.0938 112.824C82.3229 112.804 82.5521 112.783 82.7812 112.762C83.0208 112.731 83.2604 112.694 83.5 112.652C83.8542 112.6 84.2083 112.554 84.5625 112.512C84.9271 112.47 85.276 112.449 85.6094 112.449C85.7552 112.449 85.8958 112.455 86.0312 112.465C86.1667 112.475 86.2917 112.491 86.4062 112.512L86.5625 112.621C86.5938 112.684 86.6354 112.741 86.6875 112.793C86.75 112.845 86.8125 112.897 86.875 112.949C87 113.064 87.125 113.199 87.25 113.356C87.375 113.512 87.4219 113.741 87.3906 114.043C87.3073 114.168 87.2448 114.241 87.2031 114.262L87.0625 114.449L86.9062 114.434C86.8438 114.434 86.7865 114.444 86.7344 114.465C86.6823 114.475 86.6302 114.491 86.5781 114.512C86.5365 114.533 86.4948 114.554 86.4531 114.574C86.4115 114.585 86.3646 114.595 86.3125 114.606C86.2188 114.606 86.1406 114.606 86.0781 114.606C86.026 114.595 85.9688 114.59 85.9062 114.59ZM93.9062 113.215C93.9271 113.444 93.9635 113.642 94.0156 113.809C94.0677 113.975 94.125 114.137 94.1875 114.293C94.2396 114.439 94.2865 114.585 94.3281 114.731C94.3802 114.866 94.4167 115.033 94.4375 115.231C94.3542 115.501 94.2917 115.751 94.25 115.981C94.2188 116.21 94.1823 116.449 94.1406 116.699C93.974 117.064 93.8125 117.387 93.6562 117.668C93.5 117.949 93.375 118.194 93.2812 118.402C93.2292 118.455 93.1823 118.517 93.1406 118.59C93.1094 118.652 93.0729 118.72 93.0312 118.793C93.0104 118.824 92.9844 118.871 92.9531 118.934C92.9219 118.996 92.8958 119.038 92.875 119.059L92.5625 118.949L92.5 119.34L92.2812 119.402L92.125 119.59C91.9271 119.934 91.7188 120.225 91.5 120.465C91.2812 120.694 91.0312 120.902 90.75 121.09C90.4792 121.267 90.1667 121.434 89.8125 121.59C89.4688 121.746 89.0781 121.918 88.6406 122.106C88.4635 122.085 88.3073 122.074 88.1719 122.074C88.0469 122.064 87.9271 122.054 87.8125 122.043C87.6146 122.043 87.3698 122.027 87.0781 121.996C87.0469 121.913 87 121.856 86.9375 121.824C86.875 121.793 86.8177 121.777 86.7656 121.777C86.5885 121.694 86.4531 121.574 86.3594 121.418C86.276 121.251 86.1927 121.074 86.1094 120.887C86.0573 120.772 86.0052 120.668 85.9531 120.574C85.901 120.47 85.8438 120.366 85.7812 120.262L86.0469 120.184L85.7031 119.809C85.6823 119.777 85.6562 119.751 85.625 119.731C85.5938 119.699 85.5677 119.668 85.5469 119.637L85.5312 119.387C85.5 118.668 85.4844 118.012 85.4844 117.418C85.4948 116.814 85.5781 116.277 85.7344 115.809V115.637C85.7656 115.408 85.7969 115.22 85.8281 115.074C85.8594 114.918 85.8854 114.772 85.9062 114.637C85.9375 114.408 85.9844 114.194 86.0469 113.996C86.1927 113.965 86.3021 113.908 86.375 113.824C86.4479 113.731 86.5104 113.647 86.5625 113.574C86.7083 113.564 86.8073 113.585 86.8594 113.637C86.9115 113.689 86.9635 113.772 87.0156 113.887C87.0677 113.981 87.1302 114.085 87.2031 114.199C87.2865 114.314 87.4062 114.402 87.5625 114.465C87.5833 114.548 87.6094 114.637 87.6406 114.731C87.6823 114.814 87.724 114.908 87.7656 115.012C87.849 115.189 87.9219 115.376 87.9844 115.574C88.0573 115.762 88.099 115.944 88.1094 116.121C88.0052 116.319 87.9219 116.548 87.8594 116.809C87.8073 117.069 87.7708 117.335 87.75 117.606C87.7396 117.866 87.7448 118.121 87.7656 118.371C87.7969 118.611 87.8438 118.814 87.9062 118.981L88 119.184L88.2656 119.152C88.5781 119.069 88.8594 118.981 89.1094 118.887C89.3698 118.783 89.6094 118.663 89.8281 118.527C90.0469 118.392 90.2552 118.236 90.4531 118.059C90.651 117.871 90.8594 117.658 91.0781 117.418C91.2969 117.179 91.4844 116.908 91.6406 116.606C91.8073 116.293 91.9427 115.97 92.0469 115.637C92.1615 115.304 92.2448 114.975 92.2969 114.652C92.3594 114.319 92.401 114.007 92.4219 113.715C92.599 113.652 92.6875 113.527 92.6875 113.34L92.6562 113.168C92.6146 113.106 92.6146 113.033 92.6562 112.949C92.7188 112.751 92.8646 112.6 93.0938 112.496C93.2604 112.6 93.4062 112.715 93.5312 112.84C93.6667 112.965 93.7917 113.09 93.9062 113.215ZM96.5625 120.481C96.4479 120.897 96.3438 121.215 96.25 121.434C96.1667 121.642 96.0365 121.861 95.8594 122.09C95.724 122.069 95.6302 122.085 95.5781 122.137C95.526 122.189 95.4688 122.236 95.4062 122.277C95.3125 122.298 95.2448 122.298 95.2031 122.277C95.1615 122.257 95.125 122.231 95.0938 122.199C95.0625 122.179 95.0208 122.152 94.9688 122.121C94.9271 122.1 94.8594 122.09 94.7656 122.09C94.7448 122.007 94.7188 121.929 94.6875 121.856C94.6667 121.783 94.599 121.757 94.4844 121.777C94.5052 121.694 94.5104 121.626 94.5 121.574C94.4896 121.512 94.474 121.46 94.4531 121.418C94.4427 121.366 94.4323 121.319 94.4219 121.277C94.4115 121.225 94.4167 121.163 94.4375 121.09C94.3854 121.09 94.3438 121.054 94.3125 120.981C94.2812 120.908 94.2448 120.835 94.2031 120.762C94.2344 120.574 94.2656 120.397 94.2969 120.231C94.3281 120.064 94.3646 119.908 94.4062 119.762C94.4583 119.616 94.5 119.47 94.5312 119.324C94.5625 119.179 94.5469 119.027 94.4844 118.871C94.526 118.902 94.5573 118.897 94.5781 118.856C94.599 118.804 94.6146 118.741 94.625 118.668C94.6354 118.585 94.6406 118.507 94.6406 118.434C94.6406 118.35 94.6354 118.283 94.625 118.231C94.7292 117.96 94.8125 117.684 94.875 117.402C94.9479 117.111 95.0104 116.824 95.0625 116.543C95.125 116.262 95.1875 115.986 95.25 115.715C95.3125 115.444 95.3958 115.194 95.5 114.965C95.6146 114.944 95.7396 114.96 95.875 115.012C96.0208 115.054 96.1094 115.111 96.1406 115.184C96.4115 114.975 96.651 114.725 96.8594 114.434C97.0677 114.132 97.2812 113.84 97.5 113.559C97.7188 113.277 97.9583 113.027 98.2188 112.809C98.4896 112.59 98.8281 112.46 99.2344 112.418C99.4427 112.574 99.6719 112.736 99.9219 112.902C100.182 113.059 100.396 113.267 100.562 113.527C100.646 113.569 100.714 113.616 100.766 113.668C100.828 113.71 100.901 113.757 100.984 113.809V113.996C101.109 114.111 101.208 114.246 101.281 114.402C101.365 114.548 101.438 114.71 101.5 114.887C101.562 115.054 101.625 115.225 101.688 115.402C101.75 115.569 101.823 115.731 101.906 115.887C101.885 115.939 101.875 115.986 101.875 116.027C101.875 116.059 101.88 116.095 101.891 116.137C101.911 116.179 101.927 116.22 101.938 116.262C101.948 116.304 101.948 116.361 101.938 116.434C101.906 116.892 101.755 117.262 101.484 117.543C101.224 117.824 100.906 118.059 100.531 118.246C100.156 118.423 99.7552 118.574 99.3281 118.699C98.901 118.824 98.5156 118.96 98.1719 119.106C98.1719 119.147 98.1875 119.168 98.2188 119.168C98.2604 119.168 98.276 119.194 98.2656 119.246C98.5156 119.402 98.7135 119.527 98.8594 119.621C99.0052 119.715 99.1406 119.793 99.2656 119.856C99.401 119.918 99.5417 119.975 99.6875 120.027C99.8438 120.069 100.057 120.121 100.328 120.184C100.599 120.246 100.807 120.298 100.953 120.34C101.109 120.371 101.25 120.402 101.375 120.434C101.5 120.455 101.625 120.475 101.75 120.496C101.885 120.507 102.073 120.522 102.312 120.543C102.406 120.637 102.484 120.751 102.547 120.887C102.62 121.012 102.667 121.142 102.688 121.277C102.708 121.402 102.714 121.527 102.703 121.652C102.693 121.767 102.656 121.861 102.594 121.934C102.604 121.965 102.625 121.981 102.656 121.981C102.698 121.97 102.74 121.97 102.781 121.981C102.719 122.022 102.667 122.074 102.625 122.137C102.583 122.199 102.542 122.262 102.5 122.324C102.458 122.387 102.411 122.439 102.359 122.481C102.307 122.533 102.234 122.564 102.141 122.574C101.818 122.699 101.411 122.705 100.922 122.59C100.432 122.486 99.8125 122.288 99.0625 121.996C98.6875 121.85 98.3802 121.725 98.1406 121.621C97.9115 121.507 97.7083 121.397 97.5312 121.293C97.3646 121.179 97.2083 121.059 97.0625 120.934C96.9271 120.809 96.7604 120.658 96.5625 120.481ZM98.7969 115.121C98.6823 115.288 98.5521 115.439 98.4062 115.574C98.2708 115.71 98.1354 115.85 98 115.996C97.875 116.132 97.7604 116.288 97.6562 116.465C97.5521 116.632 97.4792 116.83 97.4375 117.059C97.8021 117.017 98.1823 116.918 98.5781 116.762C98.974 116.595 99.349 116.439 99.7031 116.293C99.6615 115.97 99.5469 115.71 99.3594 115.512C99.1823 115.314 98.9948 115.184 98.7969 115.121ZM111.422 113.309C111.432 113.382 111.432 113.439 111.422 113.481C111.422 113.512 111.417 113.543 111.406 113.574C111.406 113.606 111.406 113.642 111.406 113.684C111.406 113.715 111.417 113.767 111.438 113.84C111.219 114.194 110.964 114.439 110.672 114.574C110.391 114.699 110.083 114.793 109.75 114.856C109.417 114.908 109.073 114.965 108.719 115.027C108.375 115.09 108.031 115.225 107.688 115.434C107.552 115.382 107.427 115.382 107.312 115.434C107.208 115.486 107.052 115.501 106.844 115.481C106.781 115.543 106.703 115.59 106.609 115.621C106.516 115.642 106.422 115.668 106.328 115.699C106.37 115.793 106.385 115.892 106.375 115.996C106.375 116.09 106.391 116.168 106.422 116.231C106.786 116.262 107.188 116.257 107.625 116.215C108.073 116.173 108.51 116.147 108.938 116.137C108.948 116.189 108.943 116.225 108.922 116.246C108.901 116.257 108.896 116.283 108.906 116.324C108.979 116.376 109.052 116.444 109.125 116.527C109.198 116.6 109.271 116.673 109.344 116.746C109.417 116.819 109.49 116.882 109.562 116.934C109.646 116.975 109.74 116.991 109.844 116.981C109.885 117.064 109.911 117.158 109.922 117.262C109.943 117.356 109.932 117.455 109.891 117.559C109.724 117.673 109.557 117.793 109.391 117.918C109.224 118.033 109.047 118.137 108.859 118.231C108.682 118.324 108.49 118.402 108.281 118.465C108.083 118.517 107.859 118.538 107.609 118.527C107.557 118.527 107.516 118.527 107.484 118.527C107.464 118.527 107.432 118.512 107.391 118.481C107.307 118.533 107.188 118.548 107.031 118.527C106.885 118.507 106.771 118.522 106.688 118.574C106.573 118.522 106.432 118.501 106.266 118.512C106.109 118.512 105.969 118.491 105.844 118.449C105.677 118.668 105.526 118.902 105.391 119.152C105.255 119.402 105.135 119.668 105.031 119.949C105.385 120.001 105.677 120.022 105.906 120.012C106.146 120.001 106.37 119.986 106.578 119.965C106.786 119.934 107 119.908 107.219 119.887C107.438 119.856 107.714 119.845 108.047 119.856C108.255 119.741 108.5 119.668 108.781 119.637C109.073 119.595 109.339 119.533 109.578 119.449C109.661 119.481 109.734 119.538 109.797 119.621C109.859 119.694 109.917 119.767 109.969 119.84C110.031 119.902 110.094 119.96 110.156 120.012C110.219 120.064 110.297 120.085 110.391 120.074C110.432 120.116 110.458 120.168 110.469 120.231C110.49 120.283 110.505 120.335 110.516 120.387C110.526 120.439 110.542 120.486 110.562 120.527C110.594 120.559 110.641 120.569 110.703 120.559C110.547 120.902 110.365 121.168 110.156 121.356C109.958 121.533 109.729 121.668 109.469 121.762C109.208 121.856 108.917 121.929 108.594 121.981C108.281 122.033 107.932 122.095 107.547 122.168C107.453 122.189 107.375 122.184 107.312 122.152C107.25 122.132 107.177 122.121 107.094 122.121C106.854 122.173 106.568 122.22 106.234 122.262C105.901 122.304 105.562 122.319 105.219 122.309C104.875 122.298 104.547 122.251 104.234 122.168C103.922 122.095 103.667 121.96 103.469 121.762C103.385 121.689 103.328 121.606 103.297 121.512C103.276 121.408 103.208 121.33 103.094 121.277C103.083 121.142 103.062 120.991 103.031 120.824C103 120.658 102.969 120.486 102.938 120.309C102.906 120.121 102.88 119.939 102.859 119.762C102.849 119.585 102.859 119.423 102.891 119.277C102.922 119.121 102.984 118.981 103.078 118.856C103.182 118.731 103.219 118.595 103.188 118.449C103.24 118.439 103.271 118.413 103.281 118.371C103.292 118.319 103.333 118.298 103.406 118.309C103.469 118.121 103.536 117.944 103.609 117.777C103.682 117.611 103.755 117.449 103.828 117.293C103.911 117.137 103.99 116.981 104.062 116.824C104.146 116.658 104.224 116.475 104.297 116.277C104.151 116.142 104.042 115.996 103.969 115.84C103.906 115.673 103.859 115.512 103.828 115.356C103.797 115.189 103.771 115.022 103.75 114.856C103.729 114.679 103.693 114.501 103.641 114.324C103.745 114.168 103.87 114.043 104.016 113.949C104.172 113.845 104.339 113.762 104.516 113.699C104.693 113.637 104.885 113.585 105.094 113.543C105.302 113.501 105.521 113.455 105.75 113.402C106.167 113.267 106.536 113.163 106.859 113.09C107.193 113.017 107.516 112.96 107.828 112.918C108.151 112.866 108.484 112.819 108.828 112.777C109.172 112.736 109.562 112.673 110 112.59C110.094 112.684 110.182 112.731 110.266 112.731C110.307 112.637 110.354 112.611 110.406 112.652C110.469 112.684 110.495 112.652 110.484 112.559C110.589 112.736 110.719 112.887 110.875 113.012C111.042 113.126 111.224 113.225 111.422 113.309ZM113.328 120.246C113.349 120.33 113.365 120.408 113.375 120.481C113.385 120.554 113.401 120.632 113.422 120.715C113.38 120.819 113.344 120.923 113.312 121.027C113.281 121.121 113.25 121.215 113.219 121.309C113.188 121.382 113.167 121.429 113.156 121.449C113.146 121.47 113.141 121.486 113.141 121.496C113.141 121.507 113.141 121.522 113.141 121.543C113.151 121.554 113.156 121.595 113.156 121.668L113.094 121.856C113.042 121.929 112.979 121.986 112.906 122.027C112.833 122.069 112.76 122.106 112.688 122.137C112.667 122.158 112.635 122.173 112.594 122.184C112.552 122.205 112.521 122.225 112.5 122.246L112.453 122.434L112.25 122.465C112.073 122.507 111.922 122.527 111.797 122.527H111.609C111.484 122.413 111.385 122.324 111.312 122.262C111.24 122.199 111.161 122.142 111.078 122.09C110.974 121.944 110.917 121.84 110.906 121.777C110.896 121.705 110.88 121.637 110.859 121.574C110.839 121.439 110.812 121.35 110.781 121.309L110.562 121.09L110.75 120.949L110.578 120.652C110.703 120.559 110.797 120.491 110.859 120.449C110.922 120.408 110.974 120.366 111.016 120.324C111.057 120.272 111.104 120.21 111.156 120.137C111.208 120.064 111.292 119.944 111.406 119.777L111.547 119.574L111.75 119.684C111.792 119.715 111.88 119.746 112.016 119.777C112.161 119.798 112.286 119.819 112.391 119.84C112.568 119.892 112.734 119.934 112.891 119.965C113.047 119.986 113.172 120.038 113.266 120.121L113.328 120.246ZM120.594 112.418C121.031 112.47 121.422 112.559 121.766 112.684C122.109 112.809 122.401 112.975 122.641 113.184C122.807 113.444 122.964 113.725 123.109 114.027C123.266 114.33 123.38 114.647 123.453 114.981C123.536 115.304 123.573 115.637 123.562 115.981C123.562 116.324 123.49 116.673 123.344 117.027C123.042 117.402 122.672 117.71 122.234 117.949C121.807 118.179 121.344 118.366 120.844 118.512C120.344 118.658 119.823 118.783 119.281 118.887C118.75 118.991 118.229 119.095 117.719 119.199C117.729 119.439 117.729 119.694 117.719 119.965C117.719 120.225 117.693 120.491 117.641 120.762C117.599 121.022 117.531 121.277 117.438 121.527C117.344 121.777 117.219 122.007 117.062 122.215C116.885 122.215 116.703 122.236 116.516 122.277C116.328 122.33 116.161 122.371 116.016 122.402C115.943 122.361 115.875 122.319 115.812 122.277C115.76 122.246 115.682 122.225 115.578 122.215C115.599 122.111 115.573 122.007 115.5 121.902C115.427 121.788 115.354 121.673 115.281 121.559C115.208 121.444 115.156 121.335 115.125 121.231C115.104 121.126 115.156 121.027 115.281 120.934C115.208 120.861 115.172 120.767 115.172 120.652C115.245 120.527 115.307 120.356 115.359 120.137C115.422 119.918 115.469 119.705 115.5 119.496C115.542 119.277 115.552 119.08 115.531 118.902C115.51 118.725 115.406 118.595 115.219 118.512C115.229 118.491 115.25 118.481 115.281 118.481C115.312 118.481 115.344 118.475 115.375 118.465C115.292 118.402 115.24 118.314 115.219 118.199C115.208 118.085 115.172 117.986 115.109 117.902C115.13 117.85 115.146 117.804 115.156 117.762C115.167 117.72 115.203 117.705 115.266 117.715C115.234 117.527 115.234 117.35 115.266 117.184C115.307 117.017 115.365 116.861 115.438 116.715C115.51 116.559 115.599 116.408 115.703 116.262C115.807 116.116 115.906 115.97 116 115.824C116.073 115.814 116.115 115.824 116.125 115.856C116.146 115.887 116.182 115.882 116.234 115.84C116.37 115.736 116.464 115.626 116.516 115.512C116.568 115.397 116.594 115.267 116.594 115.121C116.667 114.902 116.755 114.684 116.859 114.465C116.964 114.236 117.078 114.027 117.203 113.84C117.328 113.652 117.464 113.486 117.609 113.34C117.766 113.194 117.927 113.085 118.094 113.012C118.219 112.908 118.375 112.814 118.562 112.731C118.75 112.637 118.953 112.569 119.172 112.527C119.391 112.475 119.609 112.449 119.828 112.449C120.057 112.439 120.266 112.46 120.453 112.512C120.505 112.533 120.531 112.522 120.531 112.481C120.542 112.439 120.562 112.418 120.594 112.418ZM119.953 116.152C120.214 116.038 120.49 115.949 120.781 115.887C121.083 115.814 121.333 115.684 121.531 115.496C121.406 115.382 121.224 115.283 120.984 115.199C120.745 115.106 120.484 115.048 120.203 115.027C119.922 115.007 119.635 115.033 119.344 115.106C119.062 115.168 118.818 115.293 118.609 115.481C118.547 115.668 118.495 115.819 118.453 115.934C118.411 116.038 118.354 116.168 118.281 116.324C118.302 116.376 118.333 116.418 118.375 116.449C118.427 116.47 118.464 116.507 118.484 116.559C118.724 116.434 118.964 116.366 119.203 116.356C119.453 116.335 119.703 116.267 119.953 116.152ZM128.094 118.012C128.021 118.074 127.958 118.152 127.906 118.246C127.854 118.33 127.802 118.418 127.75 118.512C127.698 118.626 127.641 118.736 127.578 118.84C127.516 118.944 127.438 119.038 127.344 119.121C127.292 119.277 127.24 119.402 127.188 119.496C127.135 119.58 127.052 119.679 126.938 119.793C126.833 120.21 126.589 120.663 126.203 121.152C126.193 121.246 126.161 121.34 126.109 121.434C126.068 121.517 126.021 121.6 125.969 121.684C125.948 121.715 125.927 121.751 125.906 121.793C125.885 121.824 125.87 121.85 125.859 121.871L125.828 122.027C125.776 122.111 125.719 122.184 125.656 122.246C125.594 122.309 125.536 122.366 125.484 122.418C125.464 122.449 125.427 122.491 125.375 122.543L125.141 122.637C124.38 122.533 123.917 122.126 123.75 121.418L123.766 121.262C123.786 121.21 123.802 121.158 123.812 121.106C123.833 121.043 123.854 120.981 123.875 120.918C123.917 120.772 123.964 120.626 124.016 120.481C124.078 120.335 124.167 120.205 124.281 120.09C124.302 120.017 124.349 119.902 124.422 119.746C124.495 119.58 124.62 119.335 124.797 119.012C124.943 118.762 125.057 118.564 125.141 118.418C125.224 118.272 125.292 118.158 125.344 118.074C125.24 117.908 125.115 117.757 124.969 117.621C124.833 117.361 124.714 117.111 124.609 116.871C124.516 116.632 124.443 116.418 124.391 116.231C124.38 116.095 124.365 115.981 124.344 115.887C124.323 115.793 124.302 115.694 124.281 115.59C124.25 115.475 124.224 115.361 124.203 115.246C124.182 115.132 124.172 115.012 124.172 114.887C124.12 114.814 124.089 114.741 124.078 114.668L124.109 114.512C124.141 114.439 124.146 114.345 124.125 114.231C124.104 114.106 124.078 113.981 124.047 113.856C124.026 113.751 124 113.637 123.969 113.512C123.948 113.387 123.943 113.262 123.953 113.137C123.964 113.012 123.995 112.897 124.047 112.793C124.109 112.679 124.208 112.58 124.344 112.496L124.609 112.481C124.703 112.533 124.792 112.585 124.875 112.637C124.969 112.679 125.057 112.725 125.141 112.777C125.255 112.83 125.365 112.882 125.469 112.934C125.573 112.986 125.682 113.054 125.797 113.137L125.906 113.356L126.109 113.527V113.699C126.12 113.741 126.125 113.798 126.125 113.871C126.125 114.007 126.146 114.09 126.188 114.121L126.25 114.309C126.25 114.455 126.266 114.595 126.297 114.731C126.328 114.856 126.359 114.975 126.391 115.09C126.422 115.205 126.453 115.324 126.484 115.449C126.516 115.574 126.521 115.71 126.5 115.856C126.562 115.824 126.615 115.788 126.656 115.746C126.677 115.725 126.698 115.71 126.719 115.699C126.74 115.689 126.76 115.673 126.781 115.652L127.703 114.402L127.672 114.246L128 113.934C128.083 113.85 128.161 113.772 128.234 113.699C128.318 113.626 128.385 113.548 128.438 113.465L128.609 113.34C128.943 112.819 129.417 112.496 130.031 112.371L130.25 112.34L130.312 112.543C130.354 112.658 130.438 112.762 130.562 112.856C130.698 112.949 130.839 113.038 130.984 113.121L131.125 113.215C131.177 113.319 131.203 113.397 131.203 113.449C131.203 113.501 131.198 113.548 131.188 113.59L131.25 113.746C131.167 113.996 131.062 114.179 130.938 114.293C130.823 114.408 130.708 114.512 130.594 114.606C130.5 114.689 130.411 114.767 130.328 114.84C130.255 114.902 130.198 114.986 130.156 115.09L130.047 115.215C129.828 115.34 129.688 115.507 129.625 115.715L129.578 115.902H129.391C129.38 115.902 129.354 115.923 129.312 115.965C129.281 115.996 129.229 116.085 129.156 116.231C129.083 116.335 129.031 116.402 129 116.434C128.969 116.465 128.943 116.491 128.922 116.512C128.911 116.554 128.896 116.595 128.875 116.637C128.865 116.668 128.849 116.71 128.828 116.762C128.693 116.897 128.609 117.001 128.578 117.074C128.547 117.137 128.51 117.21 128.469 117.293C128.427 117.376 128.385 117.46 128.344 117.543C128.312 117.616 128.255 117.694 128.172 117.777L128.094 118.012Z" fill="white"></path>
<line x1="53" y1="64.6056" x2="115" y2="64.6056" stroke="black"></line>
<line x1="53" y1="76.6056" x2="115" y2="76.6056" stroke="black"></line>
<rect x="90" y="79.1056" width="19" height="7" rx="2" fill="#15B7D6"></rect>
<line x1="53" y1="70.6056" x2="115" y2="70.6056" stroke="black"></line>
<path d="M93.2966 85.1896C92.9233 85.1896 92.6153 85.1359 92.3726 85.0286C92.1346 84.9166 91.9596 84.7626 91.8476 84.5666C91.7403 84.3706 91.6959 84.1443 91.7146 83.8876C91.7193 83.8036 91.7473 83.7616 91.7986 83.7616H92.2396C92.2956 83.7616 92.3236 83.7989 92.3236 83.8736C92.3236 84.1583 92.4076 84.3636 92.5756 84.4896C92.7436 84.6109 93.0003 84.6716 93.3456 84.6716C93.6769 84.6716 93.9266 84.6133 94.0946 84.4966C94.2673 84.3753 94.3536 84.1933 94.3536 83.9506C94.3536 83.8293 94.3326 83.7266 94.2906 83.6426C94.2533 83.5539 94.1879 83.4769 94.0946 83.4116C94.0013 83.3463 93.8753 83.2809 93.7166 83.2156L92.6876 82.7886C92.4729 82.6999 92.2979 82.6019 92.1626 82.4946C92.0319 82.3826 91.9363 82.2566 91.8756 82.1166C91.8196 81.9719 91.7916 81.8086 91.7916 81.6266C91.7963 81.2393 91.9246 80.9453 92.1766 80.7446C92.4333 80.5439 92.8043 80.4436 93.2896 80.4436C93.6209 80.4436 93.9079 80.4926 94.1506 80.5906C94.3933 80.6886 94.5776 80.8309 94.7036 81.0176C94.8296 81.2043 94.8809 81.4329 94.8576 81.7036C94.8483 81.7923 94.8226 81.8366 94.7806 81.8366H94.3326C94.3093 81.8366 94.2906 81.8273 94.2766 81.8086C94.2673 81.7899 94.2649 81.7549 94.2696 81.7036C94.2883 81.4656 94.2066 81.2836 94.0246 81.1576C93.8473 81.0269 93.5953 80.9616 93.2686 80.9616C92.9793 80.9616 92.7599 81.0129 92.6106 81.1156C92.4659 81.2183 92.3913 81.3769 92.3866 81.5916C92.3866 81.7036 92.4053 81.8016 92.4426 81.8856C92.4846 81.9696 92.5523 82.0466 92.6456 82.1166C92.7436 82.1866 92.8766 82.2566 93.0446 82.3266L94.0596 82.7536C94.2743 82.8423 94.4469 82.9403 94.5776 83.0476C94.7083 83.1549 94.8016 83.2809 94.8576 83.4256C94.9183 83.5656 94.9486 83.7359 94.9486 83.9366C94.9486 84.3286 94.8156 84.6366 94.5496 84.8606C94.2836 85.0799 93.8659 85.1896 93.2966 85.1896ZM97.1561 85.1896C96.7081 85.1896 96.3628 85.0846 96.1201 84.8746C95.8821 84.6646 95.7631 84.3543 95.7631 83.9436V82.9636C95.7631 82.5203 95.8821 82.1843 96.1201 81.9556C96.3581 81.7223 96.7034 81.6056 97.1561 81.6056C97.6088 81.6056 97.9518 81.7199 98.1851 81.9486C98.4231 82.1726 98.5421 82.4993 98.5421 82.9286V83.4746C98.5421 83.5213 98.5188 83.5446 98.4721 83.5446H96.3581V83.7686C96.3581 84.0813 96.4234 84.3099 96.5541 84.4546C96.6848 84.5946 96.8971 84.6646 97.1911 84.6646C97.4104 84.6646 97.5784 84.6296 97.6951 84.5596C97.8164 84.4849 97.8771 84.3776 97.8771 84.2376C97.8771 84.1863 97.9028 84.1606 97.9541 84.1606H98.4091C98.4464 84.1606 98.4698 84.1816 98.4791 84.2236C98.4978 84.5223 98.3881 84.7579 98.1501 84.9306C97.9121 85.1033 97.5808 85.1896 97.1561 85.1896ZM96.3581 83.0336H97.9471V82.9916C97.9471 82.6976 97.8818 82.4806 97.7511 82.3406C97.6204 82.2006 97.4244 82.1306 97.1631 82.1306C96.8924 82.1306 96.6894 82.2029 96.5541 82.3476C96.4234 82.4923 96.3581 82.7093 96.3581 82.9986V83.0336ZM101.801 85.1056C101.754 85.1056 101.731 85.0823 101.731 85.0356V82.8026C101.731 82.5693 101.682 82.3989 101.584 82.2916C101.491 82.1843 101.348 82.1306 101.157 82.1306C100.975 82.1306 100.795 82.1843 100.618 82.2916C100.441 82.3989 100.219 82.5833 99.953 82.8446L99.96 82.3056C100.119 82.1376 100.268 82.0023 100.408 81.8996C100.553 81.7969 100.695 81.7223 100.835 81.6756C100.98 81.6289 101.131 81.6056 101.29 81.6056C101.626 81.6056 101.883 81.7036 102.06 81.8996C102.237 82.0956 102.326 82.3873 102.326 82.7746V85.0356C102.326 85.0823 102.303 85.1056 102.256 85.1056H101.801ZM99.554 85.1056C99.5073 85.1056 99.484 85.0823 99.484 85.0356V82.5436C99.484 82.4223 99.477 82.2869 99.463 82.1376C99.4537 81.9836 99.4443 81.8646 99.435 81.7806C99.4257 81.7199 99.449 81.6896 99.505 81.6896H99.932C99.9553 81.6896 99.9717 81.6943 99.981 81.7036C99.995 81.7129 100.004 81.7316 100.009 81.7596C100.018 81.7969 100.028 81.8553 100.037 81.9346C100.046 82.0139 100.056 82.0979 100.065 82.1866C100.074 82.2706 100.079 82.3429 100.079 82.4036V82.5856V85.0356C100.079 85.0823 100.056 85.1056 100.009 85.1056H99.554ZM104.312 85.1896C103.985 85.1896 103.733 85.0799 103.556 84.8606C103.383 84.6413 103.297 84.3169 103.297 83.8876V83.0126C103.297 82.5693 103.409 82.2239 103.633 81.9766C103.857 81.7293 104.167 81.6056 104.564 81.6056C104.746 81.6056 104.937 81.6313 105.138 81.6826C105.338 81.7293 105.49 81.7899 105.593 81.8646L105.628 82.3756C105.478 82.2963 105.315 82.2356 105.138 82.1936C104.96 82.1516 104.804 82.1306 104.669 82.1306C104.407 82.1306 104.211 82.2099 104.081 82.3686C103.955 82.5273 103.892 82.7653 103.892 83.0826V83.9226C103.892 84.1699 103.938 84.3566 104.032 84.4826C104.13 84.6039 104.274 84.6646 104.466 84.6646C104.582 84.6646 104.697 84.6436 104.809 84.6016C104.921 84.5549 105.044 84.4803 105.18 84.3776C105.315 84.2703 105.474 84.1256 105.656 83.9436L105.642 84.4896C105.483 84.6483 105.331 84.7813 105.187 84.8886C105.047 84.9913 104.904 85.0659 104.76 85.1126C104.62 85.1639 104.47 85.1896 104.312 85.1896ZM105.691 85.1056C105.667 85.1056 105.649 85.1009 105.635 85.0916C105.621 85.0776 105.611 85.0566 105.607 85.0286C105.597 84.9586 105.586 84.8699 105.572 84.7626C105.558 84.6553 105.553 84.5666 105.558 84.4966L105.523 84.1816V80.3946C105.523 80.3479 105.546 80.3246 105.593 80.3246H106.048C106.094 80.3246 106.118 80.3479 106.118 80.3946V84.3146C106.118 84.3799 106.12 84.4593 106.125 84.5526C106.129 84.6413 106.134 84.7276 106.139 84.8116C106.148 84.8956 106.157 84.9609 106.167 85.0076C106.181 85.0729 106.157 85.1056 106.097 85.1056H105.691Z" fill="white"></path>
<line x1="53" y1="58.6056" x2="115" y2="58.6056" stroke="black"></line>
<path d="M50.9823 56.7958C50.1256 57.0907 49.384 57.2128 48.7573 57.1621C48.1307 57.1114 47.602 56.8936 47.1712 56.5089C46.7462 56.1222 46.4096 55.5686 46.1615 54.8481L45.9096 54.1163C45.6615 53.3958 45.5799 52.7259 45.6649 52.1065C45.7555 51.4851 46.0262 50.935 46.4769 50.4562C46.9332 49.9754 47.5812 49.5905 48.4208 49.3014C49.2774 49.0064 50.0286 48.8842 50.6742 48.9348C51.3236 48.9777 51.8711 49.1858 52.3169 49.559C52.7627 49.9322 53.1048 50.4648 53.3431 51.157L53.4661 51.5144C53.6185 51.9569 53.6719 52.37 53.6264 52.7537C53.5808 53.1375 53.4361 53.4728 53.1923 53.7599C52.9484 54.0469 52.6081 54.2656 52.1713 54.416C51.8593 54.5235 51.5853 54.548 51.3495 54.4896C51.1136 54.4312 50.9188 54.3079 50.7652 54.1196C50.6096 53.9257 50.5009 53.6839 50.4393 53.3942L50.1067 51.7097C49.9911 51.7241 49.869 51.7472 49.7402 51.7788C49.6096 51.8048 49.479 51.8402 49.3485 51.8851C49.1386 51.9574 48.9833 52.0775 48.8825 52.2455C48.7873 52.4115 48.7698 52.6555 48.8299 52.9775L49.0006 53.8325C49.0581 54.0919 49.1405 54.2666 49.2477 54.3566C49.3548 54.4466 49.5077 54.4575 49.7062 54.3891C49.8764 54.3305 50.0262 54.2218 50.1555 54.063C50.2886 53.8967 50.4186 53.7028 50.5454 53.4814L50.9521 54.0267C50.7992 54.3015 50.612 54.5595 50.3905 54.8007C50.1727 55.0344 49.9163 55.202 49.6213 55.3036C49.2185 55.4422 48.8957 55.417 48.6529 55.2277C48.4081 55.0328 48.2378 54.6948 48.1419 54.2138L47.9358 53.2282C47.8283 52.7132 47.8629 52.2793 48.0397 51.9265C48.2202 51.5661 48.5657 51.298 49.0763 51.1222C49.2862 51.0499 49.4802 50.9958 49.6582 50.9599C49.8418 50.922 50.018 50.8899 50.1866 50.8636C50.3609 50.8353 50.5417 50.7985 50.7291 50.753C50.7992 50.7352 50.8431 50.7613 50.8608 50.8314L51.295 53.0044C51.3469 53.2657 51.4227 53.4491 51.5224 53.5543C51.6258 53.652 51.7768 53.6666 51.9754 53.5982C52.1853 53.526 52.3483 53.4096 52.4643 53.249C52.5804 53.0885 52.6448 52.8886 52.6576 52.6494C52.6705 52.4102 52.6251 52.1403 52.5216 51.8396L52.3985 51.4822C52.2207 50.9659 51.9673 50.5709 51.6383 50.2971C51.3073 50.0177 50.8987 49.8633 50.4127 49.8339C49.9266 49.8046 49.3574 49.9022 48.705 50.1268C48.1037 50.3339 47.6292 50.6147 47.2817 50.9691C46.9379 51.3159 46.7313 51.7297 46.6621 52.2105C46.5909 52.6855 46.6578 53.2209 46.8629 53.8166L47.0944 54.4889C47.2858 55.0448 47.5395 55.4683 47.8555 55.7593C48.1714 56.0503 48.5658 56.2096 49.0385 56.2372C49.5189 56.2685 50.0909 56.1699 50.7547 55.9413L51.9205 55.5399C51.9886 55.5164 52.0344 55.5388 52.0578 55.6068L52.2746 56.2366C52.2981 56.3046 52.2757 56.3504 52.2077 56.3738L50.9823 56.7958Z" fill="#F15522"></path>
<defs>
<filter id="SvgjsFilter1000" x="27" y="80.3566" width="112" height="70.749" filterUnits="userSpaceOnUse" color-interpolation-filters="sRGB">
<feFlood flood-opacity="0" result="BackgroundImageFix"></feFlood>
<feColorMatrix in="SourceAlpha" type="matrix" values="0 0 0 0 0 0 0 0 0 0 0 0 0 0 0 0 0 0 127 0" result="hardAlpha"></feColorMatrix>
<feOffset dy="4"></feOffset>
<feGaussianBlur stdDeviation="2"></feGaussianBlur>
<feComposite in2="hardAlpha" operator="out"></feComposite>
<feColorMatrix type="matrix" values="0 0 0 0 0 0 0 0 0 0 0 0 0 0 0 0 0 0 0.25 0"></feColorMatrix>
<feBlend mode="normal" in2="BackgroundImageFix" result="effect1_dropShadow_34_35"></feBlend>
<feBlend mode="normal" in="SourceGraphic" in2="effect1_dropShadow_34_35" result="shape"></feBlend>
<feColorMatrix in="SourceAlpha" type="matrix" values="0 0 0 0 0 0 0 0 0 0 0 0 0 0 0 0 0 0 127 0" result="hardAlpha"></feColorMatrix>
<feOffset dy="3"></feOffset>
<feGaussianBlur stdDeviation="1"></feGaussianBlur>
<feComposite in2="hardAlpha" operator="arithmetic" k2="-1" k3="1"></feComposite>
<feColorMatrix type="matrix" values="0 0 0 0 0 0 0 0 0 0 0 0 0 0 0 0 0 0 0.33 0"></feColorMatrix>
<feBlend mode="normal" in2="shape" result="effect2_innerShadow_34_35"></feBlend>
</filter>
</defs>
</svg><style>@media (prefers-color-scheme: light) { :root { filter: none; } }
</style></svg>
